# xmcd
#
# Track frame offsets:
# 150
# 18890
# 36730
# 37972
# 53002
# 73072
# 90265
# 109877
# 126797
# 144047
# 164997
# 177725
# 194477
# 212077
# 231182
# 235810
# 253920
# 269350
#
# Disc length: 3796 seconds
#
#
# Revision: 2
# Processed by: cddbd v1.5.2PL0 Copyright (c) Steve Scherf et al.
# Submitted via: FreeRIP 2.95 
#
DISCID=0b0ed212
DTITLE=CB-MASS - 2nd - MATICS
DYEAR=2001
DGENRE=Hip-Hop
TTITLE0=CB-MASS 2nd - 01 행진 (Feat. DJ Wreckx)
TTITLE1=CB-MASS 2nd - 02 휘파람
TTITLE2=CB-MASS 2nd - 03 DJ Wreckx Interlude
TTITLE3=CB-MASS 2nd - 04 CB Mass는 내 친구 (GAKO MIX)
TTITLE4=CB-MASS 2nd - 05 Movement III (Feat. Drunken Tiger, Mikieyes, SEAN 2 SLOW, Insane Deegie, Tasha)
TTITLE5=CB-MASS 2nd - 06 흔척 (Feat. Lee-tzsche[이상은])
TTITLE6=CB-MASS 2nd - 07 얕잡아 볼 수 없는 이유
TTITLE7=CB-MASS 2nd - 08 셋부터 넷 (Feat. 이세진)
TTITLE8=CB-MASS 2nd - 09 일어나라
TTITLE9=CB-MASS 2nd - 10 New Joint (Feat. dj honda.parrish＂PMD＂smith_headcrack)
TTITLE10=CB-MASS 2nd - 11 Gentleman Interlude
TTITLE11=CB-MASS 2nd - 12 Gentleman Quality (For The Club)
TTITLE12=CB-MASS 2nd - 13 Sunshine Seoul (Feat. Yankie)
TTITLE13=CB-MASS 2nd - 14 Watch Out
TTITLE14=CB-MASS 2nd - 15 Outro
TTITLE15=CB-MASS 2nd - 16 CB Mass는 내 친구(Original version)
TTITLE16=CB-MASS 2nd - 17 Hidden Track I
TTITLE17=CB-MASS 2nd - 18 Hidden Track II
EXTD=
EXTT0=
EXTT1=
EXTT2=
EXTT3=
EXTT4=
EXTT5=
EXTT6=
EXTT7=
EXTT8=
EXTT9=
EXTT10=
EXTT11=
EXTT12=
EXTT13=
EXTT14=
EXTT15=
EXTT16=
EXTT17=
PLAYORDER=
